<svg xmlns="http://www.w3.org/2000/svg" width="16" height="16"><style type="text/css">.icon-canvas-transparent{opacity:0;fill:#F6F6F6;} .icon-white{fill:#FFFFFF;} .icon-vso-bg{fill:#656565;}</style><path class="icon-canvas-transparent" d="M16 16h-16v-16h16v16z" id="canvas"/><path class="icon-white" d="M8 16c-4.411 0-8-3.589-8-8s3.589-8 8-8 8 3.589 8 8-3.589 8-8 8z" id="outline"/><path class="icon-vso-bg" d="M8 1c-3.866 0-7 3.134-7 7s3.134 7 7 7 7-3.134 7-7-3.134-7-7-7zm0 13c-3.309 0-6-2.691-6-6s2.691-6 6-6 6 2.691 6 6-2.691 6-6 6zm4-5h-3v3h-2v-3h-3v-2h3v-3h2v3h3v2z" id="iconBg"/><path class="icon-white" d="M8 2c-3.309 0-6 2.691-6 6s2.691 6 6 6 6-2.691 6-6-2.691-6-6-6zm4 7h-3v3h-2v-3h-3v-2h3v-3h2v3h3v2z" id="iconFg"/></svg>