<svg xmlns="http://www.w3.org/2000/svg" width="16" height="16"><style type="text/css">.icon-canvas-transparent{opacity:0;fill:#F6F6F6;} .icon-vs-action-blue{fill:#00539C;} .icon-white{fill:#FFFFFF;}</style><path class="icon-canvas-transparent" d="M16 16h-16v-16h16v16z" id="canvas"/><path class="icon-white" d="M5.586 10l3-3h-2.586c-1.103 0-2 .897-2 2 0 1.104.897 2 2 2h1v4h-1c-3.309 0-6-2.691-6-6s2.691-6 6-6h2.586l-3-3h5.828l4.586 4.586v.828l-4.586 4.586h-5.828z" id="outline"/><path class="icon-vs-action-blue" d="M15 5l-4 4h-3l3-3h-5c-1.657 0-3 1.343-3 3 0 1.656 1.343 3 3 3v2c-2.762 0-5-2.238-5-5 0-2.761 2.238-5 5-5h5l-3-3h3l4 4z" id="iconBg"/></svg>