<svg xmlns="http://www.w3.org/2000/svg" width="16" height="16"><style type="text/css">.icon-canvas-transparent{opacity:0;fill:#F6F6F6;} .icon-white{fill:#FFFFFF;} .icon-vso-bg{fill:#656565;}</style><rect class="icon-canvas-transparent" width="16" height="16" id="canvas"/><polygon class="icon-white" points="16,1 11,1 11,0 6,0 6,1 1,1 1,4 1.996,4 3.087,16 13.913,16 15.004,4 16,4" id="outline"/><g id="iconBg"><path class="icon-vso-bg" d="M15 2v1h-13v-1h5v-1h3v1h5zm-1 2l-1 11h-9l-1-11h11zm-8 1h-1v8h1v-8zm3 0h-1v8h1v-8zm3 0h-1v8h1v-8z"/></g></svg>