<svg xmlns="http://www.w3.org/2000/svg" width="32" height="96"><style type="text/css">.icon-canvas-transparent{opacity:0;fill:#F6F6F6;} .icon-f12-grey-primary{fill:#555555;} .icon-f12-blue-hover{fill:#2279BF;} .icon-f12-ltgrey-disabled{fill:#ABABAC;}</style><path class="icon-canvas-transparent" d="M32 96h-32v-96h32v96z" id="canvas"/><g id="iconBg"><path class="icon-f12-grey-primary" d="M21.108 3.687l1.687-1.687 7.205 7.205-1.688 1.688-7.204-7.206zm-1.415 1.414l-14.988 14.989 7.195 7.196 14.999-14.98-7.206-7.205zm-16.693 16.711v7.188h7.217l-7.217-7.188z"/><path class="icon-f12-blue-hover" d="M21.108 35.687l1.687-1.687 7.205 7.205-1.688 1.688-7.204-7.206zm-1.415 1.414l-14.988 14.989 7.195 7.196 14.999-14.98-7.206-7.205zm-16.693 16.711v7.188h7.217l-7.217-7.188z"/><path class="icon-f12-ltgrey-disabled" d="M21.108 67.687l1.687-1.687 7.205 7.205-1.688 1.688-7.204-7.206zm-1.415 1.414l-14.988 14.989 7.195 7.196 14.999-14.98-7.206-7.205zm-16.693 16.711v7.188h7.217l-7.217-7.188z"/></g></svg>