<svg xmlns="http://www.w3.org/2000/svg" width="16" height="16"><style type="text/css">.icon-canvas-transparent{opacity:0;fill:#F6F6F6;} .icon-vs-out{fill:#F6F6F6;} .icon-vs-bg{fill:#424242;} .icon-vs-action-red{fill:#A1260D;}</style><path class="icon-canvas-transparent" d="M16 16h-16v-16h16v16z" id="canvas"/><path class="icon-vs-out" d="M11.859 6.991l-2.423-.046-2.298-2.847 3.555-4.098h-2.98l-2.494 1.925-1.046-1.373c-.312-.348-.777-.548-1.275-.548-.485 0-.949.185-1.269.502-.335.328-.527.787-.529 1.258-.002.472.184.918.554 1.286l1.093 1.001-2.219 1.919c-.34.336-.527.781-.528 1.255 0 .474.187.92.527 1.257.275.273.624.439.998.493-.26.565-.417 1.216-.417 1.955 0 2.4 1.306 3.984 3.438 3.982l7.076.063c.977 0 3.248-.539 3.248-4.15.001-.948.001-3.834-3.011-3.834zm-7.393-.03l.645-.686.749.655h-1.052l-.342.031z" id="outline"/><path class="icon-vs-bg" d="M5.623 11.232c.5-.5.898-.193 1.49.195.553.361 1.295.613 1.295.613l3.225.021c.5 0 .668-.564.668-1.064s-.119-1-.619-1l-1.682-1.997h1.504c1.5 0 2.496.998 2.496 2.998 0 2.002-1.199 3.002-2.699 3.002h-3.207s-.928-.604-1.949-1.443c-.604-.516-1.022-.825-.522-1.325zm4.211-1.789l-.557-.443h-1.047l-1.144-1h-2.391c-1.496 0-2.695 1.001-2.695 3.003 0 1.998.996 2.997 2.494 2.997h1.199l-1.377-1.999c-.498 0-.617-.499-.617-.999s.168-1.063.666-1.063l3.214.02s.739.252 1.29.613c.59.389.986.697 1.486.195.501-.499.084-.808-.521-1.324z" id="iconBg"/><path class="icon-vs-action-red" d="M5.834 4.073l2.667-3.073h-.446l-3.022 2.332-1.605-2.113c-.274-.307-.829-.267-1.098 0-.278.273-.334.76 0 1.093l1.921 1.76-3.02 2.608c-.308.304-.308.786 0 1.091.307.304.79.304 1.099 0l2.713-2.885 3.562 3.108h.396l-3.167-3.921z" id="colorAction"/></svg>