<svg xmlns="http://www.w3.org/2000/svg" width="16" height="16"><style type="text/css">.icon-canvas-transparent{opacity:0;fill:#F6F6F6;} .icon-vs-out{fill:#F6F6F6;} .icon-vs-bg{fill:#424242;} .icon-vs-red{fill:#E51400;}</style><path class="icon-canvas-transparent" d="M16 16h-16v-16h16v16z" id="canvas"/><path class="icon-vs-out" d="M6 15.832v-7.418l-2-2-2 2-2-2v-.824l1.586-1.607-1.586-1.565v-.832l1.586-1.586h.828l1.586 1.586 1.586-1.586h.828l2.005 2.005-1.669 1.646 9.1 5.849-9.85 6.332z" id="outline"/><path class="icon-vs-bg" d="M14 9.5l-7 4.5v-6.586l1.41-1.409-.005-.005h.151l5.444 3.5z" id="iconBg"/><path class="icon-vs-red" d="M5 3.973l2 2.027-1 1-2-2-2 2-1-1 2-2.027-2-1.973 1-1 2 2 2-2 1 1-2 1.973z" id="colorAction"/></svg>